<?xml version="1.0" encoding="utf-8"?>
<!-- Generator: Adobe Illustrator 15.0.0, SVG Export Plug-In . SVG Version: 6.00 Build 0)  -->
<!DOCTYPE svg PUBLIC "-//W3C//DTD SVG 1.1//EN" "http://www.w3.org/Graphics/SVG/1.1/DTD/svg11.dtd">
<svg version="1.1" xmlns="http://www.w3.org/2000/svg" xmlns:xlink="http://www.w3.org/1999/xlink" x="0px" y="0px" width="275px"
	 height="201.5px" viewBox="0 0 275 201.5" enable-background="new 0 0 275 201.5" xml:space="preserve">
<g id="Слой_2" display="none">
	<rect display="inline" fill="#D8DDB2" width="400" height="300"/>
	
		<image display="inline" overflow="visible" width="2560" height="1080" xlink:href="8D9B76BB.html"  transform="matrix(1 0 0 1 -1035.3721 -186.8447)">
	</image>
</g>
<g id="Слой_1">
	<g>
		<path fill="#00C38E" d="M247.591,106.453c0,0-29.475,27.926-35.313,23.138c-5.84-4.787-16.684-22.026-28.917-21.192
			c-12.235,0.834,20.575,48.104,20.575,48.104s36.147-17.586,51.162-33.818C255.932,115.906,256.21,112.292,247.591,106.453z"/>
		<path fill="#00926B" d="M247.323,129.84c0,0-8.767,1.017-12.244-12.402c7.783-6.536,7.783-6.536,7.783-6.536l12.096,12.025
			C254.958,122.927,250.733,127.173,247.323,129.84z"/>
		<path fill="#99CCFF" d="M262.128,135.487l-9.985-45.135c5.483-3.14,8.546-11.36,7.061-20.284
			c-1.769-10.618-9.304-18.208-16.83-16.955c-7.527,1.253-12.195,10.876-10.428,21.494c1.528,9.177,7.365,16.087,13.78,16.986
			l10.021,45.298c0.495,2.25,2.325,3.759,4.088,3.371C261.595,139.875,262.623,137.737,262.128,135.487z"/>
		<polygon fill="#7399BF" points="253.396,126.296 259.73,124.694 258.818,120.25 252.46,122.036 		"/>
		<path fill="#FFCC99" d="M240.508,118.053c0.854,4.379,5.095,7.235,9.475,6.381l9.798-1.909c4.379-0.854,7.235-5.095,6.383-9.473
			l-1.203-6.167c-0.853-4.377-5.095-7.235-9.473-6.381l-9.799,1.911c-4.379,0.854-7.235,5.094-6.383,9.472L240.508,118.053z"/>
		<path fill="#FFCC99" d="M240.808,106.453c0,0-1.906-6.247,2.472-7.299c4.379-1.053,3.948-0.958,3.948-0.958l1.127,5.234
			L240.808,106.453z"/>
		<path fill="#00C38E" d="M23.968,106.438c0,0,29.474,27.927,35.313,23.139c5.839-4.787,16.683-22.026,28.917-21.192
			c12.235,0.834-20.576,48.104-20.576,48.104S31.475,138.901,16.46,122.67C15.626,115.892,15.348,112.277,23.968,106.438z"/>
		<path fill="#CCFFFF" d="M95.894,102.407c0,0-25.664,8.063-35.257,41.43c-9.593,33.366-16.193,37.954-16.193,37.954
			s79.902,31.12,182.504-3.08c-8.759-13.347-17.272-23.196-21.306-40.296c-4.032-17.101-18.847-34.061-32.71-36.008
			C159.067,100.46,95.894,102.407,95.894,102.407z"/>
		<path fill="#99BFBF" d="M149.369,120.897c-0.156-5.208-3.326-9.454-9.473-9.454c-6.17,0-9.462,4.628-9.582,9.864
			c-5.492,1.49-17.577,5.727-17.654,19.662c5.802,1.063,16.03-1.204,21.685-11.498c1.64,0.789,3.532,1.244,5.551,1.244
			c1.977,0,3.834-0.434,5.449-1.193c5.514,10.199,15.604,12.586,21.38,11.625C166.877,127.272,154.854,122.499,149.369,120.897z"/>
		<path fill="#CCFFFF" d="M132.962,118.918c0,0-16.313,1.52-16.402,17.659c6.033,1.105,17.691-2.014,21.003-16.66
			C135.435,119.296,132.962,118.918,132.962,118.918z"/>
		<path fill="#CCFFFF" d="M146.469,118.804c0,0,16.285,1.787,16.111,17.924c-6.05,1.008-17.656-2.301-20.729-17
			C143.99,119.142,146.469,118.804,146.469,118.804z"/>
		<ellipse fill="#99BFBF" cx="139.743" cy="122.671" rx="9.626" ry="8.202"/>
		<ellipse fill="#CCFFFF" cx="139.743" cy="119.647" rx="9.626" ry="8.202"/>
		<path opacity="0.5" fill="#99BFBF" d="M91.367,104.375c0,0,39.114,54.13,94.386,3.732c-1.674-1.163-6.532-4.727-6.532-4.727
			l-81.598-1.838L91.367,104.375z"/>
		<path fill="#312A20" d="M80.449,61.394c0,0-6.292-16.335,0.103-29.126c1.251,2.364,3.858,3.325,3.858,3.325l0.313-10.415
			l5.804,4.379c0,0-0.417-7.507,2.085-11.4c1.251,1.529,4.449,4.727,4.449,4.727s-1.391-6.117,3.337-10.705
			c0.417,1.668,3.059,7.646,3.059,7.646s-1.529-5.7,2.919-9.732c0.278,2.363,4.171,5.978,4.171,5.978s-0.695-4.449,5.561-8.62
			c0.278,1.946,2.224,5.978,2.224,5.978s2.572-7.682,11.331-7.959c-1.391,2.781-1.877,7.403-1.877,7.403s4.97-6.222,11.365-8.029
			c-0.695,2.502-1.216,7.751-0.382,7.89c0.973-1.53,5.595-5.805,11.851-6.222c-1.112,2.085-1.842,6.222-1.842,6.222
			s3.371-4.345,10.602-4.345c-1.529,2.225-2.121,7.125-2.121,7.125s0.974-3.476,8.898-4.727c-1.112,1.947-3.197,4.866-2.363,6.534
			c1.668-0.695,5.422-4.449,5.422-4.449s3.197,3.059,2.363,5.979c3.197-0.974,3.023-4.206,3.023-4.206s5.734,4.484,4.345,8.377
			c0.974-0.557,4.589-3.337,5.283-5.839c0.417,2.642,1.552,10.258-0.974,12.512c2.78-0.834,4.798-0.973,6.882-3.059
			c0,2.364-1.459,6.256-1.876,7.507c-0.418,1.251,4.31-0.347,6.187-2.78c0.069,1.46,1.044,3.684-1.32,9.037
			c1.111-0.139,6.046-1.668,6.672-5.074c1.044,2.919,1.809,8.688-1.459,14.25c1.808-1.251,6.396-4.587,6.117-5.909
			c0.557,2.363-0.273,12.542-5.418,17.755C193.897,66.637,80.449,61.394,80.449,61.394z"/>
		<ellipse fill="#FFCC99" cx="139.743" cy="69.18" rx="60.059" ry="48.66"/>
		<circle fill="#FFCC99" cx="199.803" cy="72.238" r="10.844"/>
		<circle fill="#FFCC99" cx="79.684" cy="72.238" r="10.844"/>
		<path opacity="0.4" fill="#BF9973" d="M106.267,54.167c0,0-6.772-7.787,0.736-11.402c7.507-3.615,24.781-7.611,31.941-7.056
			c7.16,0.556,15.814,1.356,24.852,4.623c9.036,3.267,8.688,10.079,5.908,13.068C166.992,51.871,141.689,36.995,106.267,54.167z"/>
		<path fill="#FFFFFF" d="M109.992,52.619c0,0-3.128-2.417,0.973-6.171c4.101-3.753,12.838-3.449,18.004,0.556
			C126.535,47.63,116.873,50.657,109.992,52.619z"/>
		<circle cx="117.646" cy="48.943" r="2.094"/>
		<circle fill="#FFFFFF" cx="117.18" cy="47.979" r="0.619"/>
		<path fill="#FFFFFF" d="M166.876,51.255c0,0,3.128-2.417-0.974-6.17c-4.102-3.754-12.838-3.449-18.004,0.556
			C150.332,46.267,159.994,49.293,166.876,51.255z"/>
		<circle cx="159.221" cy="47.58" r="2.093"/>
		<circle fill="#FFFFFF" cx="159.687" cy="46.615" r="0.62"/>
		<path fill="#FFD6AD" d="M97.623,59.561c2.91-2.212,6.086-4.059,9.333-5.758c3.265-1.667,6.637-3.144,10.109-4.365
			c3.463-1.25,7.033-2.209,10.651-2.956c3.624-0.722,7.31-1.153,11.014-1.307c3.706-0.107,7.426,0.076,11.098,0.622
			c3.664,0.578,7.29,1.45,10.762,2.747c6.963,2.533,13.339,6.524,18.631,11.547c-5.953-4.213-12.41-7.585-19.256-9.697
			c-6.84-2.111-14.011-2.993-21.148-2.719c-3.571,0.101-7.136,0.508-10.665,1.129c-3.538,0.593-7.026,1.477-10.483,2.482
			C110.777,53.375,104.038,56.099,97.623,59.561z"/>
		<path fill="#312A20" d="M119.859,37.415c0.184,0.547-0.111,1.14-0.658,1.323l-9.749,3.272c-0.547,0.184-1.14-0.111-1.323-0.658
			l0,0c-0.184-0.547,0.111-1.14,0.658-1.324l9.749-3.272C119.083,36.573,119.676,36.867,119.859,37.415L119.859,37.415z"/>
		<path fill="#312A20" d="M169.63,41.074c-0.158,0.555-0.735,0.877-1.291,0.72l-9.892-2.81c-0.555-0.158-0.878-0.736-0.721-1.292
			l0,0c0.158-0.555,0.736-0.877,1.291-0.72l9.893,2.81C169.465,39.941,169.788,40.519,169.63,41.074L169.63,41.074z"/>
		<path opacity="0.4" fill="#BF9973" d="M129.559,51.412c4.136,2.37,3.968,5.601,8.863,5.601s3.336-2.812,8.863-5.601
			c3.63-1.832-4.143-3.186-9.037-3.186C133.353,48.226,126.102,49.43,129.559,51.412z"/>
		<path fill="#FFCC99" d="M129.559,48.598c4.136-3.451,3.968-8.154,8.863-8.154s3.336,4.094,8.863,8.154
			c3.629,2.667-4.143,4.638-9.037,4.638C133.353,53.236,126.102,51.483,129.559,48.598z"/>
		<path opacity="0.4" fill="#604D3A" d="M135.676,47.234c0,0-4.327,1.301-3.858,3.387C132.287,52.706,136.197,51.563,135.676,47.234
			z"/>
		<path opacity="0.4" fill="#604D3A" d="M141.194,47.234c0,0,4.326,1.301,3.856,3.387C144.582,52.706,140.673,51.563,141.194,47.234
			z"/>
		<path opacity="0.4" fill="#BF9973" d="M164.36,98.759c-8.263-1.075-10.715-8.518-25.939-7.475
			c-15.224,1.042-29.195,9.801-37.328,6.882C93.15,95.315,82.589,83.395,82.1,82.84c7.289,20.221,30.329,34.999,57.643,34.999
			c27.19,0,50.148-14.643,57.546-34.724C186.349,100.714,172.617,99.834,164.36,98.759z"/>
		<path fill="#BF9973" d="M79.684,66.053c0,0-7.229-0.279-6.395,6.672c1.368,4.33,3.164,4.032,3.164,4.032
			S73.474,69.518,79.684,66.053z"/>
		<path fill="#00926B" d="M24.234,129.826c0,0,8.768,1.016,12.245-12.402c-7.784-6.537-7.784-6.537-7.784-6.537L16.6,122.913
			C16.6,122.913,20.824,127.159,24.234,129.826z"/>
		<path fill="#99CCFF" d="M36.087,59.152L31,82.265l-2.691-0.592l4.7-21.355c0.099-0.45-0.293-1.773-0.498-2.806
			c-0.708,0.975-1.524,1.854-1.624,2.304l-4.708,21.389l-2.868-0.631l4.648-21.117c0.099-0.45-0.02-2.228-0.409-3.036
			c-0.578,0.398-1.532,2.066-1.631,2.516L21.256,80.12l-2.629-0.579l5.088-23.112c0.099-0.45-2.134,1.444-2.629,2.402
			c-0.26,0.503-5.417,24.609-5.417,24.609c-0.007,0.031,0.005,0.061,0.002,0.092c-0.368,2.215,1.044,4.356,3.262,4.844l0.875,0.186
			L9.43,135.474c-0.496,2.25,0.532,4.388,2.294,4.775c1.762,0.388,3.591-1.121,4.087-3.371L26.2,89.918l1.064,0.226
			c2.207,0.486,4.194-0.857,4.791-3.002c0.011-0.029,0.035-0.052,0.042-0.084l5.327-24.202
			C37.738,61.43,36.186,58.703,36.087,59.152z"/>
		<polygon fill="#7399BF" points="11.598,125.675 17.983,127.06 19.032,122.618 12.515,121.419 		"/>
		<path fill="#BF9973" d="M199.181,66.053c0,0,7.229-0.279,6.395,6.672c-1.367,4.33-3.164,4.032-3.164,4.032
			S205.39,69.518,199.181,66.053z"/>
		<path fill="#FFCC99" d="M31.049,118.04c-0.853,4.379-5.094,7.235-9.473,6.381l-9.799-1.909c-4.378-0.854-7.235-5.095-6.382-9.474
			l1.202-6.166c0.854-4.378,5.095-7.235,9.473-6.382l9.799,1.91c4.378,0.854,7.235,5.095,6.382,9.473L31.049,118.04z"/>
		<path fill="#FFCC99" d="M30.75,106.438c0,0,1.906-6.246-2.472-7.299c-4.378-1.053-3.948-0.958-3.948-0.958l-1.126,5.233
			L30.75,106.438z"/>
		<path fill="#7399BF" d="M238.414,74.95c0,0-4.084-10.231,2.059-14.629c6.144-4.398,13.789,0.468,14.485,9.783
			c-1.807-2.085-3.612-9.606-12.234-8.481C236.398,62.667,238.414,74.95,238.414,74.95z"/>
	</g>
</g>
</svg>
